<svg width="75" height="60" viewBox="0 0 75 60" fill="none" xmlns="http://www.w3.org/2000/svg">
<mask id="mask0_200_531" style="mask-type:alpha" maskUnits="userSpaceOnUse" x="0" y="0" width="75" height="60">
<rect width="75" height="60" fill="#D9D9D9"/>
</mask>
<g mask="url(#mask0_200_531)">
<path d="M6.25 19.125V9.75C6.25 8.03125 6.86198 6.5599 8.08594 5.33594C9.3099 4.11198 10.7812 3.5 12.5 3.5H62.5C64.2188 3.5 65.6901 4.11198 66.9141 5.33594C68.138 6.5599 68.75 8.03125 68.75 9.75V28.5H62.5V9.75H12.5V19.125H6.25ZM12.5 53.5C10.7812 53.5 9.3099 52.888 8.08594 51.6641C6.86198 50.4401 6.25 48.9688 6.25 47.25V37.875H12.5V47.25H34.375V53.5H12.5ZM56.25 61.3125L51.4844 57.25C46.901 53.3438 43.9453 50.5182 42.6172 48.7734C41.2891 47.0286 40.625 45.2188 40.625 43.3438C40.625 41 41.4583 38.9818 43.125 37.2891C44.7917 35.5964 46.8229 34.75 49.2188 34.75C50.5729 34.75 51.862 35.0625 53.0859 35.6875C54.3099 36.3125 55.3646 37.224 56.25 38.4219C57.0833 37.224 58.112 36.3125 59.3359 35.6875C60.5599 35.0625 61.875 34.75 63.2812 34.75C65.625 34.75 67.6432 35.5964 69.3359 37.2891C71.0286 38.9818 71.875 41 71.875 43.3438C71.875 45.2188 71.1979 47.0286 69.8438 48.7734C68.4896 50.5182 65.5208 53.3438 60.9375 57.25L56.25 61.3125ZM56.25 53.0312L58.4375 51.2344C61.3542 48.7344 63.2813 46.9766 64.2188 45.9609C65.1563 44.9453 65.625 44.0729 65.625 43.3438C65.625 42.7188 65.3906 42.1719 64.9219 41.7031C64.4531 41.2344 63.9062 41 63.2812 41C62.8646 41 62.487 41.0911 62.1484 41.2734C61.8099 41.4557 61.4062 41.7552 60.9375 42.1719L56.25 46.625L51.4844 42.1719C51.0156 41.7552 50.612 41.4557 50.2734 41.2734C49.9349 41.0911 49.5833 41 49.2188 41C48.5417 41 47.9818 41.2344 47.5391 41.7031C47.0964 42.1719 46.875 42.7188 46.875 43.3438C46.875 44.0729 47.3307 44.9453 48.2422 45.9609C49.1536 46.9766 51.0677 48.7344 53.9844 51.2344L56.25 53.0312ZM21.875 44.125C21.25 44.125 20.6901 43.9818 20.1953 43.6953C19.7005 43.4089 19.3229 42.9792 19.0625 42.4062L13.6719 31.625H6.25V25.375H15.625C16.1979 25.375 16.7318 25.5312 17.2266 25.8438C17.7214 26.1562 18.099 26.5729 18.3594 27.0938L21.875 34.0469L31.5625 14.5938C31.8229 14.0729 32.2135 13.6823 32.7344 13.4219C33.2552 13.1615 33.8021 13.0312 34.375 13.0312C34.9479 13.0312 35.4948 13.1615 36.0156 13.4219C36.5365 13.6823 36.9271 14.0729 37.1875 14.5938L42.5 25.375H53.125V31.625H40.625C40 31.625 39.4401 31.4818 38.9453 31.1953C38.4505 30.9089 38.0729 30.4792 37.8125 29.9062L34.375 23.0312L24.6094 42.4062C24.349 42.9792 23.9714 43.4089 23.4766 43.6953C22.9818 43.9818 22.4479 44.125 21.875 44.125Z" fill="#0067FF"/>
</g>
</svg>
