<svg width="76" height="75" viewBox="0 0 76 75" fill="none" xmlns="http://www.w3.org/2000/svg">
<mask id="mask0_200_537" style="mask-type:alpha" maskUnits="userSpaceOnUse" x="0" y="0" width="76" height="75">
<rect x="0.0380859" width="75" height="75" fill="#D9D9D9"/>
</mask>
<g mask="url(#mask0_200_537)">
<path d="M40.6631 71.875C38.9443 71.875 37.473 71.263 36.249 70.0391C35.0251 68.8151 34.4131 67.3438 34.4131 65.625V59.1406C29.0485 58.4115 24.5824 56.0026 21.0146 51.9141C17.4469 47.8255 15.6631 43.0208 15.6631 37.5V9.375C15.6631 7.65625 16.2751 6.1849 17.499 4.96094C18.723 3.73698 20.1943 3.125 21.9131 3.125H53.1631C54.8818 3.125 56.3532 3.73698 57.5771 4.96094C58.8011 6.1849 59.4131 7.65625 59.4131 9.375V37.5C59.4131 43.0208 57.6292 47.8255 54.0615 51.9141C50.4938 56.0026 46.0277 58.4115 40.6631 59.1406V65.625H59.4131V71.875H40.6631ZM43.0068 40.625H52.8506C52.9548 40.1042 53.0329 39.5964 53.085 39.1016C53.137 38.6068 53.1631 38.0729 53.1631 37.5V34.375H40.6631V28.125H53.1631V21.875H37.5381V15.625H53.1631V9.375H21.9131V34.375H30.5068C32.2256 34.375 33.8532 34.7656 35.3896 35.5469C36.9261 36.3281 38.2152 37.3958 39.2568 38.75C39.6735 39.3229 40.2204 39.7786 40.8975 40.1172C41.5745 40.4557 42.2777 40.625 43.0068 40.625ZM37.5381 53.125C40.0902 53.125 42.46 52.5651 44.6475 51.4453C46.835 50.3255 48.6318 48.8021 50.0381 46.875H43.0068C41.2881 46.875 39.6605 46.4844 38.124 45.7031C36.5876 44.9219 35.2985 43.8542 34.2568 42.5C33.8402 41.9271 33.2933 41.4714 32.6162 41.1328C31.9391 40.7943 31.236 40.625 30.5068 40.625H22.2256C22.9548 44.2188 24.7386 47.2005 27.5771 49.5703C30.4157 51.9401 33.736 53.125 37.5381 53.125Z" fill="#0067FF"/>
</g>
</svg>
