<svg width="40" height="39" viewBox="0 0 40 39" fill="none" xmlns="http://www.w3.org/2000/svg">
<mask id="mask0_200_566" style="mask-type:alpha" maskUnits="userSpaceOnUse" x="0" y="0" width="40" height="39">
<rect x="0.67334" y="0.138672" width="38.6535" height="38.6535" fill="#D9D9D9"/>
</mask>
<g mask="url(#mask0_200_566)">
<path d="M20.0002 35.5711C18.7923 35.5711 17.7387 35.4436 16.8395 35.1886C15.9403 34.9336 14.9269 34.4571 13.7996 33.7592L9.41077 30.9407C8.63233 30.4576 8.05522 29.8335 7.67942 29.0684C7.30362 28.3034 7.11572 27.5049 7.11572 26.6727C7.11572 24.8206 7.75995 23.4248 9.0484 22.4853C10.3368 21.5458 11.7327 21.076 13.2359 21.076C14.0143 21.076 14.7726 21.2035 15.5108 21.4585C16.2489 21.7135 16.9133 22.0961 17.5038 22.6061C17.6381 22.7403 17.779 22.8477 17.9266 22.9282C18.0742 23.0087 18.2286 23.0892 18.3896 23.1698V20.2708C17.0207 20.1902 15.7456 20.0292 14.5646 19.7876C13.3835 19.546 12.3635 19.2239 11.5045 18.8212C10.6455 18.4186 9.96776 17.9422 9.47117 17.3919C8.97458 16.8416 8.72628 16.2041 8.72628 15.4793C8.72628 14.9425 8.91418 14.4392 9.28998 13.9694C9.66578 13.4997 10.1892 13.0635 10.8603 12.6609C10.6992 12.4193 10.5717 12.1576 10.4778 11.8757C10.3838 11.5939 10.3368 11.2919 10.3368 10.9698C10.3368 10.4061 10.5583 9.8625 11.0012 9.33907C11.4441 8.81564 12.0548 8.3526 12.8332 7.94996C12.7795 7.81575 12.7527 7.69496 12.7527 7.58759V7.22521C12.7527 6.5273 13.1218 5.91663 13.8599 5.3932C14.5981 4.86976 15.5712 4.46041 16.7791 4.16514V6.62125C16.4033 6.75546 16.0879 6.88297 15.8329 7.00376C15.5779 7.12455 15.3833 7.25205 15.2491 7.38627C15.3833 7.52048 15.6852 7.67482 16.155 7.8493C16.6247 8.02378 17.3696 8.15128 18.3896 8.23181V3.35986H21.6108V8.23181C22.6308 8.15128 23.3757 8.02378 23.8454 7.8493C24.3152 7.67482 24.6172 7.52048 24.7514 7.38627C24.6172 7.2789 24.4293 7.16481 24.1877 7.04402C23.9461 6.92323 23.6374 6.79573 23.2616 6.66151V4.16514C24.4695 4.46041 25.4359 4.87647 26.1606 5.41333C26.8854 5.95018 27.2477 6.55414 27.2477 7.22521L27.1672 7.94996C27.9456 8.3526 28.5563 8.80893 28.9992 9.31894C29.4421 9.82895 29.6636 10.3792 29.6636 10.9698C29.6636 11.2919 29.6166 11.5939 29.5227 11.8757C29.4287 12.1576 29.3012 12.4193 29.1401 12.6609C29.8112 13.0635 30.3346 13.4997 30.7104 13.9694C31.0862 14.4392 31.2741 14.9425 31.2741 15.4793C31.2741 16.2041 31.0258 16.8416 30.5293 17.3919C30.0327 17.9422 29.3549 18.4186 28.4959 18.8212C27.637 19.2239 26.6169 19.546 25.4359 19.7876C24.2548 20.0292 22.9797 20.1902 21.6108 20.2708V23.1698C21.7718 23.0892 21.9262 23.0087 22.0738 22.9282C22.2214 22.8477 22.3624 22.7403 22.4966 22.6061C23.0871 22.0961 23.7515 21.7135 24.4897 21.4585C25.2278 21.2035 25.9861 21.076 26.7646 21.076C28.2678 21.076 29.6636 21.5525 30.952 22.5054C32.2405 23.4583 32.8847 24.8609 32.8847 26.713C32.8847 27.5451 32.6968 28.3437 32.321 29.1087C31.9452 29.8737 31.3681 30.4978 30.5896 30.981L26.2009 33.7592C25.0735 34.4571 24.0602 34.9336 23.1609 35.1886C22.2617 35.4436 21.2081 35.5711 20.0002 35.5711ZM20.0002 32.35C20.8592 32.35 21.6175 32.256 22.2751 32.0681C22.9328 31.8802 23.6642 31.5313 24.4695 31.0212L28.8583 28.243C29.1267 28.082 29.328 27.8605 29.4623 27.5787C29.5965 27.2968 29.6636 27.0083 29.6636 26.713C29.6636 25.9346 29.3549 25.3373 28.7375 24.9212C28.1201 24.5052 27.4625 24.2972 26.7646 24.2972C26.3619 24.2972 25.9727 24.3576 25.5969 24.4783C25.2211 24.5991 24.8856 24.7803 24.5903 25.0219C23.9461 25.5856 23.2348 26.0218 22.4563 26.3305C21.6779 26.6392 20.8592 26.7935 20.0002 26.7935C19.1412 26.7935 18.3225 26.6392 17.5441 26.3305C16.7657 26.0218 16.0543 25.5856 15.4101 25.0219C15.1148 24.7803 14.7793 24.5991 14.4035 24.4783C14.0277 24.3576 13.6385 24.2972 13.2359 24.2972C12.5379 24.2972 11.8803 24.4985 11.2629 24.9011C10.6455 25.3038 10.3368 25.8943 10.3368 26.6727C10.3368 26.968 10.404 27.2633 10.5382 27.5585C10.6724 27.8538 10.8737 28.082 11.1421 28.243L15.5309 31.0615C16.3362 31.5715 17.0676 31.9138 17.7253 32.0882C18.3829 32.2627 19.1412 32.35 20.0002 32.35ZM18.3896 17.8549V15.4391C17.3428 15.3854 16.3563 15.2646 15.4302 15.0767C14.5042 14.8888 13.6922 14.6338 12.9943 14.3117C12.3769 14.5801 11.9273 14.8284 11.6454 15.0566C11.3636 15.2847 11.1958 15.4525 11.1421 15.5599C11.1958 15.8551 11.7796 16.2779 12.8936 16.8282C14.0076 17.3785 15.8396 17.7207 18.3896 17.8549ZM13.9606 28.3236C14.2827 28.3236 14.5646 28.2028 14.8062 27.9612C15.0477 27.7196 15.1685 27.4377 15.1685 27.1156C15.1685 26.7935 15.0477 26.5117 14.8062 26.2701C14.5646 26.0285 14.2827 25.9077 13.9606 25.9077C13.6385 25.9077 13.3566 26.0285 13.1151 26.2701C12.8735 26.5117 12.7527 26.7935 12.7527 27.1156C12.7527 27.4377 12.8735 27.7196 13.1151 27.9612C13.3566 28.2028 13.6385 28.3236 13.9606 28.3236ZM18.3896 13.0232V10.6477C17.6649 10.594 16.9804 10.4933 16.3362 10.3457C15.692 10.198 15.1283 10.0168 14.6451 9.80211C14.0277 10.0437 13.5714 10.2786 13.2761 10.5067C12.9808 10.7349 12.8064 10.9027 12.7527 11.01C12.7795 11.3858 13.2627 11.7818 14.2022 12.1978C15.1417 12.6139 16.5375 12.889 18.3896 13.0232ZM21.6108 17.8549C24.1608 17.7207 25.9928 17.3785 27.1068 16.8282C28.2208 16.2779 28.8046 15.8551 28.8583 15.5599C28.8046 15.4525 28.6436 15.2847 28.3751 15.0566C28.1067 14.8284 27.6638 14.5801 27.0464 14.3117C26.3485 14.6338 25.5365 14.8888 24.6104 15.0767C23.6844 15.2646 22.6845 15.3854 21.6108 15.4391V17.8549ZM21.6108 13.0232C23.4629 12.889 24.8587 12.6139 25.7982 12.1978C26.7377 11.7818 27.2209 11.3858 27.2477 11.01C27.194 10.9295 27.0397 10.7752 26.7847 10.547C26.5297 10.3188 26.0667 10.0705 25.3956 9.80211C24.9124 10.0437 24.3487 10.2316 23.7045 10.3658C23.0603 10.5 22.3624 10.594 21.6108 10.6477V13.0232ZM26.0398 28.3236C26.3619 28.3236 26.6438 28.2028 26.8854 27.9612C27.1269 27.7196 27.2477 27.4377 27.2477 27.1156C27.2477 26.7935 27.1269 26.5117 26.8854 26.2701C26.6438 26.0285 26.3619 25.9077 26.0398 25.9077C25.7177 25.9077 25.4359 26.0285 25.1943 26.2701C24.9527 26.5117 24.8319 26.7935 24.8319 27.1156C24.8319 27.4377 24.9527 27.7196 25.1943 27.9612C25.4359 28.2028 25.7177 28.3236 26.0398 28.3236Z" fill="white"/>
</g>
</svg>
