<svg width="40" height="39" viewBox="0 0 40 39" fill="none" xmlns="http://www.w3.org/2000/svg">
<mask id="mask0_200_559" style="mask-type:alpha" maskUnits="userSpaceOnUse" x="0" y="0" width="40" height="39">
<rect x="0.67334" y="0.138672" width="38.6535" height="38.6535" fill="#D9D9D9"/>
</mask>
<g mask="url(#mask0_200_559)">
<path d="M29.6635 33.9605L27.4087 31.7057L29.9454 29.1288H23.2213V25.9077H29.9454L27.4087 23.3308L29.6635 21.076L36.1058 27.5183L29.6635 33.9605ZM22.416 35.5711C19.517 35.5711 17.0474 34.5511 15.0074 32.511C12.9674 30.471 11.9473 28.0014 11.9473 25.1024V24.1764C9.63887 23.8006 7.71961 22.7201 6.18958 20.9351C4.65955 19.1501 3.89453 17.0496 3.89453 14.6338V4.97042H8.72621V3.35986H11.9473V9.80211H8.72621V8.19155H7.11565V14.6338C7.11565 16.4054 7.74646 17.922 9.00806 19.1836C10.2697 20.4452 11.7863 21.076 13.5579 21.076C15.3295 21.076 16.8461 20.4452 18.1077 19.1836C19.3693 17.922 20.0001 16.4054 20.0001 14.6338V8.19155H18.3896V9.80211H15.1685V3.35986H18.3896V4.97042H23.2213V14.6338C23.2213 17.0496 22.4562 19.1501 20.9262 20.9351C19.3962 22.7201 17.4769 23.8006 15.1685 24.1764V25.1024C15.1685 27.1156 15.8731 28.8269 17.2823 30.2361C18.6916 31.6453 20.4028 32.35 22.416 32.35V35.5711Z" fill="white"/>
</g>
</svg>
