 <svg
          class="brxe-icon"
          id="brxe-ff69ad"
          xmlns="http://www.w3.org/2000/svg"
          width="196"
          height="42"
          viewBox="0 0 196 42"
          fill="none"
        >
          <path
            d="M58.776 11.26L51.972 31H44.944L38.112 11.26H43.992L48.472 25.512L52.924 11.26H58.776ZM65.974 11.26V31H60.486V11.26H65.974ZM83.9673 11.26V15.628H78.7033V31H73.2153V15.628H68.0073V11.26H83.9673ZM98.4857 27.78H91.4857L90.4217 31H84.6537L91.8497 11.26H98.1777L105.346 31H99.5497L98.4857 27.78ZM97.1137 23.58L94.9857 17.196L92.8857 23.58H97.1137ZM112.622 26.8H118.754V31H107.134V11.26H112.622V26.8ZM120.216 21.088C120.216 19.1467 120.618 17.42 121.42 15.908C122.242 14.3773 123.399 13.192 124.892 12.352C126.386 11.4933 128.103 11.064 130.044 11.064C132.508 11.064 134.58 11.7267 136.26 13.052C137.94 14.3587 139.023 16.1413 139.508 18.4H133.6C133.246 17.6533 132.751 17.084 132.116 16.692C131.5 16.3 130.782 16.104 129.96 16.104C128.691 16.104 127.674 16.5613 126.908 17.476C126.162 18.372 125.788 19.576 125.788 21.088C125.788 22.6187 126.162 23.8413 126.908 24.756C127.674 25.652 128.691 26.1 129.96 26.1C130.782 26.1 131.5 25.904 132.116 25.512C132.751 25.12 133.246 24.5507 133.6 23.804H139.508C139.023 26.0627 137.94 27.8547 136.26 29.18C134.58 30.4867 132.508 31.14 130.044 31.14C128.103 31.14 126.386 30.72 124.892 29.88C123.399 29.0213 122.242 27.836 121.42 26.324C120.618 24.7933 120.216 23.048 120.216 21.088ZM154.595 27.78H147.595L146.531 31H140.763L147.959 11.26H154.287L161.455 31H155.659L154.595 27.78ZM153.223 23.58L151.095 17.196L148.995 23.58H153.223ZM173.24 31L169.32 23.72H168.732V31H163.244V11.26H171.896C173.482 11.26 174.826 11.54 175.928 12.1C177.029 12.6413 177.86 13.3973 178.42 14.368C178.98 15.32 179.26 16.3933 179.26 17.588C179.26 18.932 178.886 20.1173 178.14 21.144C177.412 22.152 176.338 22.8707 174.92 23.3L179.372 31H173.24ZM168.732 19.968H171.448C172.194 19.968 172.754 19.7907 173.128 19.436C173.501 19.0813 173.688 18.568 173.688 17.896C173.688 17.2613 173.492 16.7667 173.1 16.412C172.726 16.0387 172.176 15.852 171.448 15.852H168.732V19.968ZM187.244 15.656V18.876H193.544V23.048H187.244V26.604H194.384V31H181.756V11.26H194.384V15.656H187.244Z"
            fill="white"
          ></path>
          <circle cx="16" cy="21" r="16" fill="white"></circle>
          <mask
            id="mask0_1_2234"
            style="mask-type: alpha"
            maskUnits="userSpaceOnUse"
            x="3"
            y="8"
            width="26"
            height="26"
          >
            <rect
              x="3.45898"
              y="8.45947"
              width="25.0811"
              height="25.0811"
              fill="white"
            ></rect>
          </mask>
          <g mask="url(#mask0_1_2234)">
            <path
              d="M13.3876 27.27H15.4777V19.6935L13.2831 15.3043L11.4021 16.2448L13.3876 20.216V27.27ZM16.5228 27.27H18.6129V20.216L20.5985 16.2448L18.7174 15.3043L16.5228 19.6935V27.27ZM21.121 22.5151L23.2111 18.3349L21.33 17.3944L19.2399 21.5745L21.121 22.5151ZM10.8795 22.5151L12.7606 21.5745L10.6705 17.3944L8.78944 18.3349L10.8795 22.5151ZM16.0003 31.4502C14.5546 31.4502 13.1961 31.1759 11.9246 30.6272C10.6531 30.0786 9.5471 29.334 8.60656 28.3935C7.66602 27.4529 6.92143 26.3469 6.37278 25.0754C5.82413 23.804 5.5498 22.4454 5.5498 20.9998C5.5498 19.5541 5.82413 18.1956 6.37278 16.9241C6.92143 15.6526 7.66602 14.5466 8.60656 13.6061C9.5471 12.6655 10.6531 11.9209 11.9246 11.3723C13.1961 10.8236 14.5546 10.5493 16.0003 10.5493C17.4459 10.5493 18.8045 10.8236 20.0759 11.3723C21.3474 11.9209 22.4534 12.6655 23.3939 13.6061C24.3345 14.5466 25.0791 15.6526 25.6277 16.9241C26.1764 18.1956 26.4507 19.5541 26.4507 20.9998C26.4507 22.4454 26.1764 23.804 25.6277 25.0754C25.0791 26.3469 24.3345 27.4529 23.3939 28.3935C22.4534 29.334 21.3474 30.0786 20.0759 30.6272C18.8045 31.1759 17.4459 31.4502 16.0003 31.4502ZM16.0003 29.3601C18.3342 29.3601 20.3111 28.5502 21.9309 26.9304C23.5507 25.3106 24.3606 23.3337 24.3606 20.9998C24.3606 18.6658 23.5507 16.689 21.9309 15.0691C20.3111 13.4493 18.3342 12.6394 16.0003 12.6394C13.6663 12.6394 11.6894 13.4493 10.0696 15.0691C8.4498 16.689 7.63989 18.6658 7.63989 20.9998C7.63989 23.3337 8.4498 25.3106 10.0696 26.9304C11.6894 28.5502 13.6663 29.3601 16.0003 29.3601Z"
              fill="#0067FF"
            ></path>
          </g>
        </svg>